HIERARCHY
ROOT SpineBase
{
  OFFSET 0.000000 0.000000 0.000000
  CHANNELS 6 Xposition Yposition Zposition Zrotation Xrotation Yrotation
  JOINT SpineMid
  {
    OFFSET 0.000000 30.916063 0.000000
    CHANNELS 3 Zrotation Xrotation Yrotation
    JOINT SpineShoulder
    {
      OFFSET -0.041515 22.882274 -0.746567
      CHANNELS 3 Zrotation Xrotation Yrotation
      JOINT Neck
      {
        OFFSET -0.021145 7.542009 -0.575075
        CHANNELS 3 Zrotation Xrotation Yrotation
        JOINT Head
        {
          OFFSET -1.212375 14.598615 -0.886128
          CHANNELS 3 Zrotation Xrotation Yrotation
          End Site
          {
            OFFSET 0 0 0
          }
        }
      }
      JOINT ShoulderLeft
      {
        OFFSET -19.212566 -4.105018 3.112690
        CHANNELS 3 Zrotation Xrotation Yrotation
        JOINT ElbowLeft
        {
          OFFSET -1.391787 -26.225747 1.060302
          CHANNELS 3 Zrotation Xrotation Yrotation
          JOINT WristLeft
          {
            OFFSET 2.184582 -18.896417 -10.595432
            CHANNELS 3 Zrotation Xrotation Yrotation
            JOINT HandLeft
            {
              OFFSET 2.367747 -3.828991 -1.203032
              CHANNELS 3 Zrotation Xrotation Yrotation
              JOINT HandTipLeft
              {
                OFFSET 0.435850 -6.341969 -2.276164
                CHANNELS 3 Zrotation Xrotation Yrotation
                End Site
                {
                  OFFSET 0 0 0
                }
              }
              JOINT ThumbLeft
              {
                OFFSET 2.593318 0.004518 -0.320207
                CHANNELS 3 Zrotation Xrotation Yrotation
                End Site
                {
                  OFFSET 0 0 0
                }
              }
            }
          }
        }
      }
      JOINT ShoulderRight
      {
        OFFSET 16.508130 -4.135312 -7.620961
        CHANNELS 3 Zrotation Xrotation Yrotation
        JOINT ElbowRight
        {
          OFFSET 4.071156 -23.153210 -2.211644
          CHANNELS 3 Zrotation Xrotation Yrotation
          JOINT WristRight
          {
            OFFSET -8.365079 -18.662570 -6.951207
            CHANNELS 3 Zrotation Xrotation Yrotation
            JOINT HandRight
            {
              OFFSET -4.657945 -5.442618 -0.321127
              CHANNELS 3 Zrotation Xrotation Yrotation
              JOINT HandTipRight
              {
                OFFSET -4.157920 -6.040911 -1.527512
                CHANNELS 3 Zrotation Xrotation Yrotation
                End Site
                {
                  OFFSET 0 0 0
                }
              }
              JOINT ThumbRight
              {
                OFFSET 2.028859 -1.771348 0.485531
                CHANNELS 3 Zrotation Xrotation Yrotation
                End Site
                {
                  OFFSET 0 0 0
                }
              }
            }
          }
        }
      }
    }
  }
  JOINT HipLeft
  {
    OFFSET -8.113446 0.023268 -2.074952
    CHANNELS 3 Zrotation Xrotation Yrotation
    JOINT KneeLeft
    {
      OFFSET 1.020664 -32.594380 8.129424
      CHANNELS 3 Zrotation Xrotation Yrotation
      JOINT AnkleLeft
      {
        OFFSET 1.805964 -32.343632 8.807579
        CHANNELS 3 Zrotation Xrotation Yrotation
        JOINT FootLeft
        {
          OFFSET -1.605363 -8.332701 -6.273581
          CHANNELS 3 Zrotation Xrotation Yrotation
          End Site
          {
            OFFSET 0 0 0
          }
        }
      }
    }
  }
  JOINT HipRight
  {
    OFFSET 8.221960 1.085058 -5.308180
    CHANNELS 3 Zrotation Xrotation Yrotation
    JOINT KneeRight
    {
      OFFSET 3.595777 -33.960466 8.422623
      CHANNELS 3 Zrotation Xrotation Yrotation
      JOINT AnkleRight
      {
        OFFSET 2.190742 -31.289551 9.723913
        CHANNELS 3 Zrotation Xrotation Yrotation
        JOINT FootRight
        {
          OFFSET -2.353880 -6.331555 -10.530959
          CHANNELS 3 Zrotation Xrotation Yrotation
          End Site
          {
            OFFSET 0 0 0
          }
        }
      }
    }
  }
}
MOTION
Frames: 15
Frame Time: 0.033333
-9.299490 74.974178 356.405044 1.681818 -2.660712 -0.932224 0.168689 -0.624236 1.031717 -0.041768 -0.211525 0.077473 -4.610726 -0.567853 -0.509271 0.000000 0.000000 0.000000 -5.790879 -4.041445 0.147515 6.616574 2.937898 -2.770714 7.153141 -22.330076 -16.559310 -5.729206 11.040152 16.542681 0.000000 0.000000 0.000000 0.000000 0.000000 0.000000 87.745006 29.159506 -31.789218 -56.858092 59.486311 -67.307462 5.697817 -19.834964 -27.513566 2.773861 -15.892997 18.059856 0.000000 0.000000 0.000000 0.000000 0.000000 0.000000 -1.726691 2.631825 1.010951 0.473810 -1.157895 0.068952 4.898672 -10.817448 -1.478587 0.000000 0.000000 0.000000 -3.600507 5.464508 0.995314 2.787980 -2.601957 0.556787 4.395721 -11.592783 -5.511241 0.000000 0.000000 0.000000
-9.306807 75.095057 356.305716 1.787364 -2.959437 -2.056757 0.117014 -0.604126 2.165421 -0.076350 -0.202175 0.077438 -5.060291 -1.181561 -0.603385 0.000000 0.000000 0.000000 -6.538303 -3.945576 0.143119 7.541642 3.540727 -2.884768 4.769310 -25.490025 -18.021583 -3.813772 9.788925 17.582234 0.000000 0.000000 0.000000 0.000000 0.000000 0.000000 90.966678 26.674842 -32.033482 -52.725053 69.455295 -77.769214 5.136162 -20.698699 -31.958928 8.425979 -13.131368 20.769724 0.000000 0.000000 0.000000 0.000000 0.000000 0.000000 -2.204120 1.842314 2.044433 0.932938 -0.179464 0.202361 5.004893 -9.537340 -1.981948 0.000000 0.000000 0.000000 -4.091540 5.826112 2.121001 3.062049 -2.857226 0.614678 5.768931 -21.187434 -3.673691 0.000000 0.000000 0.000000
-9.337086 75.216088 356.189112 1.877628 -3.294793 -3.024287 -0.007155 -0.572803 3.141605 -0.116389 -0.188786 0.073451 -5.178081 -1.897104 -0.698440 0.000000 0.000000 0.000000 -7.459050 -4.774342 0.141354 8.660957 4.855436 -3.122285 3.695504 -25.396703 -17.714839 -2.329639 8.891262 16.763628 0.000000 0.000000 0.000000 0.000000 0.000000 0.000000 92.300318 23.619139 -30.824264 -41.203783 78.650246 -93.980404 1.961066 -22.739397 -37.463968 14.364213 -8.897969 23.112484 0.000000 0.000000 0.000000 0.000000 0.000000 0.000000 -2.519651 1.864051 2.981366 1.210950 -0.007773 0.270464 5.013737 -4.156078 -3.348323 0.000000 0.000000 0.000000 -4.572249 6.238129 3.098298 3.340784 -3.171838 0.670749 7.359557 -29.643164 -1.632006 0.000000 0.000000 0.000000
-9.433176 75.322456 356.065936 1.850047 -3.622834 -3.574748 -0.057714 -0.570174 3.694638 -0.143219 -0.204369 0.068729 -5.112057 -2.542560 -0.781039 0.000000 0.000000 0.000000 -8.293622 -6.602929 0.134829 9.601839 6.987141 -3.471859 3.571971 -21.585688 -15.243398 -1.040803 3.780060 14.478113 0.000000 0.000000 0.000000 0.000000 0.000000 0.000000 94.587462 19.660749 -29.374092 -8.718735 83.790472 -131.197229 -8.337824 -29.242894 -46.401879 17.818626 -1.980972 22.588936 0.000000 0.000000 0.000000 0.000000 0.000000 0.000000 -2.621985 1.925300 3.513986 1.383757 0.186350 0.313892 4.949665 3.835360 -5.094054 0.000000 0.000000 0.000000 -4.724147 6.664441 3.681292 3.428620 -3.515887 0.672193 8.698899 -35.068443 -0.051421 0.000000 0.000000 0.000000
-9.603367 75.383929 355.950193 1.746082 -4.003673 -3.646153 -0.079027 -0.594406 3.764502 -0.191577 -0.228449 0.061431 -4.890840 -2.736804 -0.810262 0.000000 0.000000 0.000000 -7.861866 -6.525394 0.209902 9.209995 7.030359 -3.439877 4.625408 -19.949169 -14.576696 -1.455846 1.255571 14.129476 0.000000 0.000000 0.000000 0.000000 0.000000 0.000000 94.681795 18.102445 -28.632303 66.892648 84.643973 149.779864 -14.574141 -29.140238 -54.048858 22.256474 2.051027 22.812505 0.000000 0.000000 0.000000 0.000000 0.000000 0.000000 -2.465091 2.082648 3.599742 1.381784 0.469047 0.320256 4.880035 12.576057 -6.815009 0.000000 0.000000 0.000000 -4.585891 7.154228 3.804167 3.365106 -3.865335 0.633514 9.058693 -36.004826 0.050576 0.000000 0.000000 0.000000
-9.819895 75.423838 355.832872 1.576316 -4.372992 -3.419427 -0.094410 -0.615172 3.530446 -0.226017 -0.252864 0.052305 -4.413535 -2.753470 -0.810647 0.000000 0.000000 0.000000 -8.301713 -7.177779 0.227784 9.965169 8.182039 -3.684073 6.430223 -18.473616 -13.791361 -2.527527 -2.354037 14.021876 0.000000 0.000000 0.000000 0.000000 0.000000 0.000000 94.667683 17.688063 -28.632624 92.962698 80.943699 121.515279 -23.406771 -30.990532 -62.904222 22.260185 2.248581 20.581214 0.000000 0.000000 0.000000 0.000000 0.000000 0.000000 -2.176104 2.247980 3.390519 1.338768 0.789357 0.318845 4.689289 20.595814 -8.169269 0.000000 0.000000 0.000000 -4.278739 7.607011 3.620394 3.300090 -4.113115 0.607096 8.061983 -31.376894 -1.918715 0.000000 0.000000 0.000000
-10.117134 75.423543 355.737646 1.280917 -4.717299 -2.755886 -0.050085 -0.614744 2.847888 -0.270410 -0.296739 0.040333 -3.550301 -2.956397 -0.819701 0.000000 0.000000 0.000000 -8.877406 -8.090730 0.223543 10.832100 9.334200 -3.946893 8.389755 -14.174526 -11.711233 -4.918416 -10.275187 13.294698 0.000000 0.000000 0.000000 0.000000 0.000000 0.000000 94.067390 19.029410 -29.552503 98.950677 77.605039 114.749958 -29.943385 -34.785093 -70.329936 17.602271 1.762629 18.042587 0.000000 0.000000 0.000000 0.000000 0.000000 0.000000 -1.655228 2.500040 2.749837 1.207898 1.066859 0.298096 3.106029 29.411199 -8.329775 0.000000 0.000000 0.000000 -3.594308 8.043771 3.000717 3.116923 -4.351889 0.556042 9.379945 -36.003868 -1.586974 0.000000 0.000000 0.000000
-10.468897 75.368098 355.696442 0.896787 -5.063293 -1.580275 0.063720 -0.607790 1.643357 -0.298445 -0.362893 0.028354 -2.509262 -2.998409 -0.811238 0.000000 0.000000 0.000000 -9.268088 -9.654809 0.209720 11.455103 10.963484 -4.287796 9.452571 -8.823249 -9.276835 -5.414233 -14.612283 10.328163 0.000000 0.000000 0.000000 0.000000 0.000000 0.000000 93.271165 22.605912 -31.873870 97.210837 76.351004 117.500509 -35.389429 -36.976828 -77.195671 11.261778 -0.991632 16.193177 0.000000 0.000000 0.000000 0.000000 0.000000 0.000000 -0.977587 2.839509 1.592493 1.085609 1.374753 0.284010 1.802284 32.833560 -7.874955 0.000000 0.000000 0.000000 -2.612193 8.436581 1.853903 2.799611 -4.523181 0.471993 9.067599 -34.765215 -2.340362 0.000000 0.000000 0.000000
-10.864103 75.262913 355.698126 0.446791 -5.370536 0.049179 0.204050 -0.555416 -0.024209 -0.285703 -0.412372 0.015586 -1.330404 -3.243835 -0.816509 0.000000 0.000000 0.000000 -9.475929 -11.046218 0.185384 11.789991 12.145527 -4.522917 9.021881 -3.709557 -6.856794 -2.713298 -14.553517 6.151740 0.000000 0.000000 0.000000 0.000000 0.000000 0.000000 91.415726 27.937595 -34.564352 93.587603 76.815430 124.517439 -39.055207 -35.889412 -82.360216 5.824040 -6.265324 14.379898 0.000000 0.000000 0.000000 0.000000 0.000000 0.000000 -0.175333 3.173507 -0.029187 1.033731 1.711312 0.289387 0.600274 32.400268 -7.044683 0.000000 0.000000 0.000000 -1.343981 8.672123 0.232501 2.380597 -4.530073 0.374970 5.882664 -24.675119 -2.529501 0.000000 0.000000 0.000000
-11.257863 75.117672 355.748576 -0.016139 -5.656551 2.158904 0.339152 -0.480621 -2.175951 -0.252965 -0.447449 0.002175 -0.007536 -3.677437 -0.829178 0.000000 0.000000 0.000000 -9.160189 -12.342563 0.191550 11.537092 13.090431 -4.637051 7.669383 0.517107 -4.634058 1.031527 -12.841565 2.480394 0.000000 0.000000 0.000000 0.000000 0.000000 0.000000 88.477788 35.582979 -37.716353 76.584714 78.366401 148.682456 -48.347415 -36.147993 -92.535384 -2.735260 -9.918393 12.926768 0.000000 0.000000 0.000000 0.000000 0.000000 0.000000 0.692391 3.518815 -2.139332 0.999336 2.069790 0.301245 -0.263105 28.189663 -6.019833 0.000000 0.000000 0.000000 0.058225 8.817469 -1.885045 1.921896 -4.528262 0.268242 5.084917 -21.624882 -2.982497 0.000000 0.000000 0.000000
-11.632730 74.961307 355.846938 -0.467608 -5.944617 4.721793 0.473519 -0.333567 -4.782007 -0.214692 -0.477565 -0.011361 1.332244 -4.214504 -0.837881 0.000000 0.000000 0.000000 -8.277665 -13.368996 0.249544 10.660160 13.657756 -4.582396 6.158607 3.072808 -3.151020 6.039080 -7.829666 -0.567212 0.000000 0.000000 0.000000 0.000000 0.000000 0.000000 84.065336 45.401051 -40.618896 51.407140 78.577544 -175.961220 -53.763417 -31.554523 -99.202627 -8.997519 -16.004260 10.127560 0.000000 0.000000 0.000000 0.000000 0.000000 0.000000 1.596386 3.950647 -4.711027 0.991572 2.322721 0.318664 -0.838734 18.563652 -4.452879 0.000000 0.000000 0.000000 1.471143 8.842115 -4.478380 1.561061 -4.493255 0.195720 3.332788 -15.914701 -2.750572 0.000000 0.000000 0.000000
-11.968841 74.874412 355.933064 -0.921947 -6.201609 7.382875 0.595898 -0.267676 -7.487915 -0.226837 -0.554088 -0.027587 2.859659 -4.225466 -0.809867 0.000000 0.000000 0.000000 -7.271438 -14.097104 0.338178 9.766251 14.093448 -4.491854 3.300325 7.037077 -0.176234 11.821576 -7.628572 -4.066053 0.000000 0.000000 0.000000 0.000000 0.000000 0.000000 77.297045 55.191822 -41.111975 22.758951 73.925528 -132.713932 -63.884636 -21.131584 -107.622976 -13.184681 -24.559840 3.252761 0.000000 0.000000 0.000000 0.000000 0.000000 0.000000 2.479673 4.345857 -7.399514 1.103330 2.506596 0.362835 -0.659649 10.045522 -3.632538 0.000000 0.000000 0.000000 2.781771 8.753639 -7.187014 1.432511 -4.442790 0.198436 0.925582 -9.133748 -1.802125 0.000000 0.000000 0.000000
-12.207969 74.811834 356.086448 -1.146912 -6.520792 10.404894 0.637146 -0.192002 -10.535147 -0.166257 -0.581233 -0.035236 3.651381 -4.023479 -0.797456 0.000000 0.000000 0.000000 -6.535442 -14.499636 0.425704 9.017945 14.389207 -4.405901 1.097556 10.128646 2.352246 17.113310 -5.772594 -6.885086 0.000000 0.000000 0.000000 0.000000 0.000000 0.000000 63.383814 64.753100 -35.219798 11.093996 64.164526 -101.420626 -82.996271 -4.306371 -119.130053 -14.775658 -8.016563 19.508482 0.000000 0.000000 0.000000 0.000000 0.000000 0.000000 3.181262 4.951524 -10.445488 1.196456 2.508143 0.402782 0.073989 1.031171 -2.916466 0.000000 0.000000 0.000000 3.890711 8.654707 -10.243373 1.234973 -4.369951 0.172944 -1.717516 -2.714995 0.002632 0.000000 0.000000 0.000000
-12.396285 74.632658 356.324871 -1.316879 -6.872609 13.613864 0.628768 -0.119316 -13.764533 -0.204324 -0.647475 -0.045869 4.465622 -3.535027 -0.786739 0.000000 0.000000 0.000000 -5.687217 -14.380697 0.527828 9.937201 17.222365 -5.296505 -3.378058 7.687599 4.470271 22.601728 -3.297460 -8.812511 0.000000 0.000000 0.000000 0.000000 0.000000 0.000000 42.335709 71.073055 -20.812622 10.449705 54.404744 -82.299186 -90.753308 12.535330 -117.873489 -41.702454 36.388603 89.473361 0.000000 0.000000 0.000000 0.000000 0.000000 0.000000 3.929230 5.608785 -13.686535 1.262317 2.473620 0.438690 1.048398 -7.006772 -2.308982 0.000000 0.000000 0.000000 5.102795 8.356216 -13.469341 0.709919 -4.138724 0.053297 -4.341867 2.166361 2.572295 0.000000 0.000000 0.000000
-12.488490 74.281281 356.544726 -1.358692 -7.177871 15.843211 0.481491 -0.121793 -15.999710 -0.282554 -0.659501 -0.056276 5.215468 -2.569718 -0.767571 0.000000 0.000000 0.000000 -4.892994 -13.906265 0.617934 8.948302 16.716793 -4.856257 -3.737819 13.872687 8.081089 24.282715 -6.388353 -10.628454 0.000000 0.000000 0.000000 0.000000 0.000000 0.000000 11.325529 72.807027 3.846342 17.147224 50.171470 -72.227690 -64.967433 4.334384 -101.732647 -67.740275 46.815759 128.983373 0.000000 0.000000 0.000000 0.000000 0.000000 0.000000 4.475920 5.904889 -15.926389 1.255274 2.795253 0.455936 1.622036 -11.945526 -1.889821 0.000000 0.000000 0.000000 5.829483 8.069031 -15.711461 0.287622 -3.919325 -0.045123 -6.508056 5.322315 5.050675 0.000000 0.000000 0.000000
